<svg width="18" height="18" viewBox="0 0 18 18" fill="none" xmlns="http://www.w3.org/2000/svg">
<g clip-path="url(#clip0_2685_242)">
<path d="M15.8643 12.465C18.712 9.61722 18.7119 4.98356 15.8643 2.13581C13.0165 -0.711937 8.38294 -0.711937 5.53525 2.13581C3.11932 4.55174 2.75343 8.14484 4.43659 10.9507C4.43659 10.9507 4.55749 11.1535 4.3942 11.3167C3.46266 12.2482 0.667849 15.043 0.667849 15.043C-0.0738498 15.7847 -0.250417 16.8217 0.407318 17.4796L0.520564 17.5927C1.1783 18.2506 2.21544 18.0741 2.95708 17.3324C2.95708 17.3324 5.74597 14.5434 6.6756 13.6138C6.84672 13.4427 7.04949 13.5636 7.04949 13.5636C9.85526 15.2467 13.4484 14.8809 15.8643 12.465ZM6.88365 11.1165C4.77946 9.01231 4.77952 5.58858 6.88371 3.48439C8.9879 1.38025 12.4116 1.3802 14.5158 3.48439C16.62 5.58853 16.62 9.01231 14.5158 11.1165C12.4116 13.2206 8.98791 13.2206 6.88365 11.1165Z" fill="white"/>
<path d="M7.34965 6.86702C7.25171 6.86702 7.15215 6.84777 7.05618 6.80724C6.67284 6.64499 6.49349 6.20268 6.65573 5.81927C7.67547 3.40944 10.4656 2.27854 12.8754 3.29828C13.2587 3.46052 13.4381 3.90284 13.2758 4.28624C13.1135 4.66964 12.6713 4.84888 12.2878 4.68669C10.6437 3.99098 8.73986 4.7626 8.04421 6.40673C7.92249 6.69428 7.64335 6.86702 7.34965 6.86702Z" fill="white"/>
</g>
<defs>
<clipPath id="clip0_2685_242">
<rect width="18" height="18" fill="white"/>
</clipPath>
</defs>
</svg>
